<svg width="189" height="258" viewBox="0 0 189 258" fill="none" xmlns="http://www.w3.org/2000/svg">
<path d="M94.1351 0L83.4665 10.6715C80.0149 14.1241 0 95.1022 0 163.839C0 215.628 42.3608 258 94.1351 258C145.909 258 188.27 215.628 188.27 163.839C188.27 95.416 108.255 14.1241 104.804 10.6715L94.1351 0Z" fill="#FFBB0D"/>
<path d="M83.801 80.1892V98.9057H68.1431C53.9466 98.9057 42.0467 109.574 42.0467 122.301V131.659C42.0467 144.387 51.2326 154.868 64.8028 158.05L118.248 170.403C121.171 171.151 125.347 175.83 125.347 178.638V187.996C125.347 190.616 123.05 192.675 120.127 192.675H67.9343C65.4291 192.675 63.5501 191.927 62.7151 191.552V173.959H41.8379V192.675C41.8379 199.039 46.0133 204.467 51.0238 207.274C55.8256 210.269 61.88 211.392 67.9343 211.392H83.5922V230.108H104.469V211.392H120.127C134.533 211.392 146.224 200.91 146.224 187.996V178.638C146.224 165.911 137.038 155.429 123.468 152.248L70.0221 139.895C67.0993 139.146 62.9238 134.467 62.9238 131.659V122.301C62.9238 119.681 65.2203 117.622 68.1431 117.622H120.336C122.633 117.622 124.72 118.371 125.555 118.745V136.339H146.432V117.622C146.432 111.259 142.257 105.831 137.247 103.023C132.445 100.029 126.39 98.9057 120.336 98.9057H104.678V80.1892L83.801 80.1892Z" fill="#131328"/>
</svg>
