<svg width="272" height="86" viewBox="0 0 272 86" fill="none" xmlns="http://www.w3.org/2000/svg">
<path d="M64 57V31.56H54.16V29H76.8V31.56H66.96V57H64ZM92.9169 57V52.36L92.7969 51.6V43.84C92.7969 42.0533 92.2902 40.68 91.2769 39.72C90.2902 38.76 88.8102 38.28 86.8369 38.28C85.4769 38.28 84.1835 38.5067 82.9569 38.96C81.7302 39.4133 80.6902 40.0133 79.8369 40.76L78.5569 38.64C79.6235 37.7333 80.9035 37.04 82.3969 36.56C83.8902 36.0533 85.4635 35.8 87.1169 35.8C89.8369 35.8 91.9302 36.48 93.3969 37.84C94.8902 39.1733 95.6369 41.2133 95.6369 43.96V57H92.9169ZM85.6769 57.2C84.1035 57.2 82.7302 56.9467 81.5569 56.44C80.4102 55.9067 79.5302 55.1867 78.9169 54.28C78.3035 53.3467 77.9969 52.28 77.9969 51.08C77.9969 49.9867 78.2502 49 78.7569 48.12C79.2902 47.2133 80.1435 46.4933 81.3169 45.96C82.5169 45.4 84.1169 45.12 86.1169 45.12H93.3569V47.24H86.1969C84.1702 47.24 82.7569 47.6 81.9569 48.32C81.1835 49.04 80.7969 49.9333 80.7969 51C80.7969 52.2 81.2635 53.16 82.1969 53.88C83.1302 54.6 84.4369 54.96 86.1169 54.96C87.7169 54.96 89.0902 54.6 90.2369 53.88C91.4102 53.1333 92.2635 52.0667 92.7969 50.68L93.4369 52.64C92.9035 54.0267 91.9702 55.1333 90.6369 55.96C89.3302 56.7867 87.6769 57.2 85.6769 57.2ZM114.071 35.8C115.777 35.8 117.271 36.1333 118.551 36.8C119.857 37.44 120.871 38.4267 121.591 39.76C122.337 41.0933 122.711 42.7733 122.711 44.8V57H119.871V45.08C119.871 42.8667 119.311 41.2 118.191 40.08C117.097 38.9333 115.551 38.36 113.551 38.36C112.057 38.36 110.751 38.6667 109.631 39.28C108.537 39.8667 107.684 40.7333 107.071 41.88C106.484 43 106.191 44.36 106.191 45.96V57H103.351V36H106.071V41.76L105.631 40.68C106.297 39.16 107.364 37.9733 108.831 37.12C110.297 36.24 112.044 35.8 114.071 35.8ZM132.622 51.56L132.702 47.92L145.782 36H149.262L140.022 44.84L138.422 46.2L132.622 51.56ZM130.382 57V27.32H133.222V57H130.382ZM146.662 57L137.902 46.08L139.742 43.88L150.142 57H146.662ZM162.885 57.4C160.699 57.4 158.605 57.0933 156.605 56.48C154.605 55.84 153.019 55.0267 151.845 54.04L153.645 50C154.765 50.88 156.152 51.6133 157.805 52.2C159.459 52.7867 161.152 53.08 162.885 53.08C164.352 53.08 165.539 52.92 166.445 52.6C167.352 52.28 168.019 51.8533 168.445 51.32C168.872 50.76 169.085 50.1333 169.085 49.44C169.085 48.5867 168.779 47.9067 168.165 47.4C167.552 46.8667 166.752 46.4533 165.765 46.16C164.805 45.84 163.725 45.5467 162.525 45.28C161.352 45.0133 160.165 44.7067 158.965 44.36C157.792 43.9867 156.712 43.52 155.725 42.96C154.765 42.3733 153.979 41.6 153.365 40.64C152.752 39.68 152.445 38.4533 152.445 36.96C152.445 35.44 152.845 34.0533 153.645 32.8C154.472 31.52 155.712 30.5067 157.365 29.76C159.045 28.9867 161.165 28.6 163.725 28.6C165.405 28.6 167.072 28.8133 168.725 29.24C170.379 29.6667 171.819 30.28 173.045 31.08L171.405 35.12C170.152 34.3733 168.859 33.8267 167.525 33.48C166.192 33.1067 164.912 32.92 163.685 32.92C162.245 32.92 161.072 33.0933 160.165 33.44C159.285 33.7867 158.632 34.24 158.205 34.8C157.805 35.36 157.605 36 157.605 36.72C157.605 37.5733 157.899 38.2667 158.485 38.8C159.099 39.3067 159.885 39.7067 160.845 40C161.832 40.2933 162.925 40.5867 164.125 40.88C165.325 41.1467 166.512 41.4533 167.685 41.8C168.885 42.1467 169.965 42.6 170.925 43.16C171.912 43.72 172.699 44.48 173.285 45.44C173.899 46.4 174.205 47.6133 174.205 49.08C174.205 50.5733 173.792 51.96 172.965 53.24C172.165 54.4933 170.925 55.5067 169.245 56.28C167.565 57.0267 165.445 57.4 162.885 57.4ZM192.042 57V52.68L191.762 51.76V44.2C191.762 42.7333 191.322 41.6 190.442 40.8C189.562 39.9733 188.228 39.56 186.442 39.56C185.242 39.56 184.055 39.7467 182.882 40.12C181.735 40.4933 180.762 41.0133 179.962 41.68L178.002 38.04C179.148 37.16 180.508 36.5067 182.082 36.08C183.682 35.6267 185.335 35.4 187.042 35.4C190.135 35.4 192.522 36.1467 194.202 37.64C195.908 39.1067 196.762 41.3867 196.762 44.48V57H192.042ZM185.322 57.28C183.722 57.28 182.322 57.0133 181.122 56.48C179.922 55.92 178.988 55.16 178.322 54.2C177.682 53.2133 177.362 52.1067 177.362 50.88C177.362 49.68 177.642 48.6 178.202 47.64C178.788 46.68 179.735 45.92 181.042 45.36C182.348 44.8 184.082 44.52 186.242 44.52H192.442V47.84H186.602C184.895 47.84 183.748 48.12 183.162 48.68C182.575 49.2133 182.282 49.88 182.282 50.68C182.282 51.5867 182.642 52.3067 183.362 52.84C184.082 53.3733 185.082 53.64 186.362 53.64C187.588 53.64 188.682 53.36 189.642 52.8C190.628 52.24 191.335 51.4133 191.762 50.32L192.602 53.32C192.122 54.5733 191.255 55.5467 190.002 56.24C188.775 56.9333 187.215 57.28 185.322 57.28ZM208.468 57L199.308 35.64H204.508L212.388 54.48H209.828L217.988 35.64H222.788L213.628 57H208.468ZM235.367 57.28C232.994 57.28 230.914 56.8133 229.127 55.88C227.367 54.92 225.994 53.6133 225.007 51.96C224.047 50.3067 223.567 48.4267 223.567 46.32C223.567 44.1867 224.034 42.3067 224.967 40.68C225.927 39.0267 227.234 37.7333 228.887 36.8C230.567 35.8667 232.474 35.4 234.607 35.4C236.687 35.4 238.54 35.8533 240.167 36.76C241.794 37.6667 243.074 38.9467 244.007 40.6C244.94 42.2533 245.407 44.2 245.407 46.44C245.407 46.6533 245.394 46.8933 245.367 47.16C245.367 47.4267 245.354 47.68 245.327 47.92H227.527V44.6H242.687L240.727 45.64C240.754 44.4133 240.5 43.3333 239.967 42.4C239.434 41.4667 238.7 40.7333 237.767 40.2C236.86 39.6667 235.807 39.4 234.607 39.4C233.38 39.4 232.3 39.6667 231.367 40.2C230.46 40.7333 229.74 41.48 229.207 42.44C228.7 43.3733 228.447 44.48 228.447 45.76V46.56C228.447 47.84 228.74 48.9733 229.327 49.96C229.914 50.9467 230.74 51.7067 231.807 52.24C232.874 52.7733 234.1 53.04 235.487 53.04C236.687 53.04 237.767 52.8533 238.727 52.48C239.687 52.1067 240.54 51.52 241.287 50.72L243.967 53.8C243.007 54.92 241.794 55.7867 240.327 56.4C238.887 56.9867 237.234 57.28 235.367 57.28ZM250.21 57V35.64H254.97V41.52L254.41 39.8C255.05 38.36 256.05 37.2667 257.41 36.52C258.796 35.7733 260.516 35.4 262.57 35.4V40.16C262.356 40.1067 262.156 40.08 261.97 40.08C261.783 40.0533 261.596 40.04 261.41 40.04C259.516 40.04 258.01 40.6 256.89 41.72C255.77 42.8133 255.21 44.4533 255.21 46.64V57H250.21Z" fill="#FFBB0D"/>
<path d="M18.6081 17L16.4992 19.1095C15.8169 19.792 0 35.7993 0 49.3869C0 59.6241 8.37365 68 18.6081 68C28.8426 68 37.2162 59.6241 37.2162 49.3869C37.2162 35.8613 21.3993 19.792 20.717 19.1095L18.6081 17Z" fill="#FFBB0D"/>
<path d="M16.5655 32.8513V36.5511H13.4704C10.6641 36.5511 8.31178 38.66 8.31178 41.1758V43.0257C8.31178 45.5415 10.1276 47.6134 12.8101 48.2424L23.3749 50.6842C23.9527 50.8322 24.778 51.7572 24.778 52.3121V54.162C24.778 54.68 24.3241 55.087 23.7463 55.087H13.4291C12.9339 55.087 12.5625 54.939 12.3974 54.865V51.3872H8.27051V55.087C8.27051 56.3449 9.09588 57.4178 10.0863 57.9728C11.0355 58.5647 12.2323 58.7867 13.4291 58.7867H16.5243V62.4865H20.6512V58.7867H23.7463C26.5939 58.7867 28.9049 56.7148 28.9049 54.162V52.3121C28.9049 49.7963 27.0891 47.7244 24.4066 47.0955L13.8418 44.6536C13.264 44.5056 12.4387 43.5807 12.4387 43.0257V41.1758C12.4387 40.6579 12.8926 40.2509 13.4704 40.2509H23.7876C24.2415 40.2509 24.6542 40.3989 24.8193 40.4729V43.9507H28.9462V40.2509C28.9462 38.993 28.1208 37.92 27.1304 37.3651C26.1812 36.7731 24.9844 36.5511 23.7876 36.5511H20.6924V32.8513L16.5655 32.8513Z" fill="#131328"/>
</svg>
